<svg id="visual" viewBox="0 0 2500 1600" width="2500" height="1600" xmlns="http://www.w3.org/2000/svg" xmlns:xlink="http://www.w3.org/1999/xlink" version="1.1"><rect x="0" y="0" width="2500" height="1600" fill="#F5F5F7"></rect><path d="M0 409L59.5 421C119 433 238 457 357 472.7C476 488.3 595 495.7 714 521.8C833 548 952 593 1071.2 599.5C1190.3 606 1309.7 574 1428.8 560C1548 546 1667 550 1786 562.5C1905 575 2024 596 2143 599.7C2262 603.3 2381 589.7 2440.5 582.8L2500 576L2500 0L2440.5 0C2381 0 2262 0 2143 0C2024 0 1905 0 1786 0C1667 0 1548 0 1428.8 0C1309.7 0 1190.3 0 1071.2 0C952 0 833 0 714 0C595 0 476 0 357 0C238 0 119 0 59.5 0L0 0Z" fill="#eaa5ec"></path><path d="M0 452L59.5 461C119 470 238 488 357 476.3C476 464.7 595 423.3 714 425.2C833 427 952 472 1071.2 465C1190.3 458 1309.7 399 1428.8 366.5C1548 334 1667 328 1786 340.8C1905 353.7 2024 385.3 2143 390.3C2262 395.3 2381 373.7 2440.5 362.8L2500 352L2500 0L2440.5 0C2381 0 2262 0 2143 0C2024 0 1905 0 1786 0C1667 0 1548 0 1428.8 0C1309.7 0 1190.3 0 1071.2 0C952 0 833 0 714 0C595 0 476 0 357 0C238 0 119 0 59.5 0L0 0Z" fill="#e496e7"></path><path d="M0 391L59.5 369C119 347 238 303 357 285.7C476 268.3 595 277.7 714 298.7C833 319.7 952 352.3 1071.2 372.5C1190.3 392.7 1309.7 400.3 1428.8 383.8C1548 367.3 1667 326.7 1786 323C1905 319.3 2024 352.7 2143 360C2262 367.3 2381 348.7 2440.5 339.3L2500 330L2500 0L2440.5 0C2381 0 2262 0 2143 0C2024 0 1905 0 1786 0C1667 0 1548 0 1428.8 0C1309.7 0 1190.3 0 1071.2 0C952 0 833 0 714 0C595 0 476 0 357 0C238 0 119 0 59.5 0L0 0Z" fill="#dd87e1"></path><path d="M0 248L59.5 242.7C119 237.3 238 226.7 357 220.8C476 215 595 214 714 209C833 204 952 195 1071.2 192C1190.3 189 1309.7 192 1428.8 186.2C1548 180.3 1667 165.7 1786 181.5C1905 197.3 2024 243.7 2143 247.7C2262 251.7 2381 213.3 2440.5 194.2L2500 175L2500 0L2440.5 0C2381 0 2262 0 2143 0C2024 0 1905 0 1786 0C1667 0 1548 0 1428.8 0C1309.7 0 1190.3 0 1071.2 0C952 0 833 0 714 0C595 0 476 0 357 0C238 0 119 0 59.5 0L0 0Z" fill="#d778db"></path><path d="M0 86L59.5 103.2C119 120.3 238 154.7 357 154C476 153.3 595 117.7 714 114.8C833 112 952 142 1071.2 141C1190.3 140 1309.7 108 1428.8 94.5C1548 81 1667 86 1786 90.8C1905 95.7 2024 100.3 2143 110.7C2262 121 2381 137 2440.5 145L2500 153L2500 0L2440.5 0C2381 0 2262 0 2143 0C2024 0 1905 0 1786 0C1667 0 1548 0 1428.8 0C1309.7 0 1190.3 0 1071.2 0C952 0 833 0 714 0C595 0 476 0 357 0C238 0 119 0 59.5 0L0 0Z" fill="#d068d5"></path></svg>